<svg width="32" height="27" viewBox="0 0 32 27" fill="none" xmlns="http://www.w3.org/2000/svg">
<path d="M27.2 7.94118H25.6V0H9.6V7.94118H8.352C7.472 6.97235 6.224 6.35294 4.8 6.35294C2.144 6.35294 0 8.48118 0 11.1176V22.2353C0 24.8718 2.144 27 4.8 27C6.224 27 7.472 26.3806 8.352 25.4118H32V12.7059C32 10.0694 29.856 7.94118 27.2 7.94118ZM6.4 22.2353C6.4 23.1088 5.68 23.8235 4.8 23.8235C3.92 23.8235 3.2 23.1088 3.2 22.2353V11.1176C3.2 10.2441 3.92 9.52941 4.8 9.52941C5.68 9.52941 6.4 10.2441 6.4 11.1176V22.2353ZM12.8 3.17647H22.4V7.94118H12.8V3.17647ZM28.8 22.2353H9.6V11.1176H27.2C28.08 11.1176 28.8 11.8324 28.8 12.7059V22.2353Z" fill="black"/>
<path d="M20.8 15.8824C21.6837 15.8824 22.4 15.1713 22.4 14.2941C22.4 13.417 21.6837 12.7059 20.8 12.7059C19.9163 12.7059 19.2 13.417 19.2 14.2941C19.2 15.1713 19.9163 15.8824 20.8 15.8824Z" fill="black"/>
<path d="M25.6 15.8824C26.4837 15.8824 27.2 15.1713 27.2 14.2941C27.2 13.417 26.4837 12.7059 25.6 12.7059C24.7163 12.7059 24 13.417 24 14.2941C24 15.1713 24.7163 15.8824 25.6 15.8824Z" fill="black"/>
<path d="M20.8 20.6471C21.6837 20.6471 22.4 19.936 22.4 19.0588C22.4 18.1817 21.6837 17.4706 20.8 17.4706C19.9163 17.4706 19.2 18.1817 19.2 19.0588C19.2 19.936 19.9163 20.6471 20.8 20.6471Z" fill="black"/>
<path d="M25.6 20.6471C26.4837 20.6471 27.2 19.936 27.2 19.0588C27.2 18.1817 26.4837 17.4706 25.6 17.4706C24.7163 17.4706 24 18.1817 24 19.0588C24 19.936 24.7163 20.6471 25.6 20.6471Z" fill="black"/>
<path d="M17.6 12.7059H11.2V20.6471H17.6V12.7059Z" fill="black"/>
</svg>
