<svg width="29" height="29" viewBox="0 0 29 29" fill="none" xmlns="http://www.w3.org/2000/svg">
<path d="M26.1586 19.776L22.0581 19.3079C21.0733 19.1948 20.1047 19.5339 19.4105 20.228L16.4401 23.1985C11.8715 20.8738 8.12616 17.1446 5.80148 12.5598L8.78805 9.57321C9.48223 8.87903 9.82124 7.91041 9.70824 6.92564L9.24007 2.85743C9.04635 1.22692 7.67414 0 6.0275 0H3.23465C1.41042 0 -0.107075 1.51751 0.00593032 3.34174C0.861541 17.1285 11.8876 28.1385 25.6581 28.9941C27.4823 29.1071 28.9998 27.5896 28.9998 25.7653V22.9725C29.016 21.342 27.7891 19.9697 26.1586 19.776Z" fill="black"/>
</svg>
