<svg width="30" height="40" viewBox="0 0 30 40" fill="none" xmlns="http://www.w3.org/2000/svg">
<path d="M14.5703 25.2632C18.065 25.2632 20.8861 22.4421 20.8861 18.9474V6.31579C20.8861 2.82105 18.065 0 14.5703 0C11.0755 0 8.25449 2.82105 8.25449 6.31579V18.9474C8.25449 22.4421 11.0755 25.2632 14.5703 25.2632ZM12.465 6.31579C12.465 5.1579 13.4124 4.21053 14.5703 4.21053C15.7282 4.21053 16.6755 5.1579 16.6755 6.31579V18.9474C16.6755 20.1053 15.7282 21.0526 14.5703 21.0526C13.4124 21.0526 12.465 20.1053 12.465 18.9474V6.31579ZM27.0124 18.9474C25.9808 18.9474 25.1177 19.7053 24.9492 20.7368C24.0861 25.6842 19.7703 29.4737 14.5703 29.4737C9.37028 29.4737 5.05449 25.6842 4.19134 20.7368C4.02292 19.7053 3.15976 18.9474 2.12818 18.9474C0.843968 18.9474 -0.166558 20.0842 0.0229157 21.3474C1.05449 27.6632 6.10713 32.6105 12.465 33.5158V37.8947C12.465 39.0526 13.4124 40 14.5703 40C15.7282 40 16.6755 39.0526 16.6755 37.8947V33.5158C23.0334 32.6105 28.0861 27.6632 29.1177 21.3474C29.3282 20.0842 28.2966 18.9474 27.0124 18.9474Z" fill="#183C73"/>
</svg>
