<svg width="40" height="40" viewBox="0 0 50 50" fill="none" xmlns="http://www.w3.org/2000/svg">
<circle cx="25" cy="25" r="25" fill="#33CCCC"/>
<path d="M35.5506 30.0483L32.0157 29.6447C31.1668 29.5473 30.3317 29.8395 29.7333 30.438L27.1726 32.9987C23.2341 30.9946 20.0054 27.7798 18.0013 23.8274L20.5759 21.2528C21.1744 20.6543 21.4666 19.8193 21.3692 18.9704L20.9656 15.4633C20.7986 14.0577 19.6157 13 18.1961 13H15.7885C14.2159 13 12.9077 14.3082 13.0051 15.8808C13.7427 27.7659 23.248 37.2573 35.1192 37.9949C36.6918 38.0923 38 36.7841 38 35.2115V32.8039C38.0139 31.3982 36.9562 30.2153 35.5506 30.0483Z" fill="white"/>
</svg>
