<svg width="46" height="39" viewBox="0 0 46 39" fill="none" xmlns="http://www.w3.org/2000/svg">
<path d="M4.63944 32.1176V30.6265C4.63944 29.8465 5.01059 29.1124 5.59052 28.7682C9.51084 26.4512 13.9879 25.2353 18.5577 25.2353C18.6273 25.2353 18.6737 25.2353 18.7433 25.2582C18.9753 23.6524 19.4392 22.1153 20.112 20.7159C19.6016 20.67 19.0913 20.6471 18.5577 20.6471C12.944 20.6471 7.70146 22.1841 3.22441 24.8224C1.18306 26.0153 0 28.2635 0 30.6265V36.7059H21.4806C20.5063 35.3294 19.7408 33.7694 19.2305 32.1176H4.63944Z" fill="#183C73"/>
<path d="M18.5577 18.3529C23.6843 18.3529 27.8366 14.2465 27.8366 9.17647C27.8366 4.10647 23.6843 0 18.5577 0C13.4312 0 9.27887 4.10647 9.27887 9.17647C9.27887 14.2465 13.4312 18.3529 18.5577 18.3529ZM18.5577 4.58824C21.1094 4.58824 23.1972 6.65294 23.1972 9.17647C23.1972 11.7 21.1094 13.7647 18.5577 13.7647C16.0061 13.7647 13.9183 11.7 13.9183 9.17647C13.9183 6.65294 16.0061 4.58824 18.5577 4.58824Z" fill="#183C73"/>
<path d="M43.4947 27.5294C43.4947 27.0247 43.4251 26.5659 43.3555 26.0841L46 23.7671L43.6803 19.7982L40.3167 20.9224C39.5744 20.3029 38.7393 19.8212 37.8114 19.4771L37.1155 16.0588H32.476L31.7801 19.4771C30.8522 19.8212 30.0171 20.3029 29.2748 20.9224L25.9112 19.7982L23.5915 23.7671L26.236 26.0841C26.1664 26.5659 26.0968 27.0247 26.0968 27.5294C26.0968 28.0341 26.1664 28.4929 26.236 28.9747L23.5915 31.2918L25.9112 35.2606L29.2748 34.1365C30.0171 34.7559 30.8522 35.2376 31.7801 35.5818L32.476 39H37.1155L37.8114 35.5818C38.7393 35.2376 39.5744 34.7559 40.3167 34.1365L43.6803 35.2606L46 31.2918L43.3555 28.9747C43.4251 28.4929 43.4947 28.0341 43.4947 27.5294ZM34.7958 32.1176C32.2441 32.1176 30.1563 30.0529 30.1563 27.5294C30.1563 25.0059 32.2441 22.9412 34.7958 22.9412C37.3475 22.9412 39.4352 25.0059 39.4352 27.5294C39.4352 30.0529 37.3475 32.1176 34.7958 32.1176Z" fill="#183C73"/>
</svg>
