<svg width="46" height="46" viewBox="0 0 46 46" fill="none" xmlns="http://www.w3.org/2000/svg">
<path d="M22.977 0C10.281 0 0 10.304 0 23C0 35.696 10.281 46 22.977 46C35.696 46 46 35.696 46 23C46 10.304 35.696 0 22.977 0ZM38.916 13.8H32.131C31.395 10.925 30.337 8.165 28.957 5.612C33.189 7.061 36.708 10.005 38.916 13.8ZM23 4.692C24.909 7.452 26.404 10.511 27.393 13.8H18.607C19.596 10.511 21.091 7.452 23 4.692ZM5.198 27.6C4.83 26.128 4.6 24.587 4.6 23C4.6 21.413 4.83 19.872 5.198 18.4H12.972C12.788 19.918 12.65 21.436 12.65 23C12.65 24.564 12.788 26.082 12.972 27.6H5.198ZM7.084 32.2H13.869C14.605 35.075 15.663 37.835 17.043 40.388C12.811 38.939 9.292 36.018 7.084 32.2ZM13.869 13.8H7.084C9.292 9.982 12.811 7.061 17.043 5.612C15.663 8.165 14.605 10.925 13.869 13.8ZM23 41.308C21.091 38.548 19.596 35.489 18.607 32.2H27.393C26.404 35.489 24.909 38.548 23 41.308ZM28.382 27.6H17.618C17.411 26.082 17.25 24.564 17.25 23C17.25 21.436 17.411 19.895 17.618 18.4H28.382C28.589 19.895 28.75 21.436 28.75 23C28.75 24.564 28.589 26.082 28.382 27.6ZM28.957 40.388C30.337 37.835 31.395 35.075 32.131 32.2H38.916C36.708 35.995 33.189 38.939 28.957 40.388ZM33.028 27.6C33.212 26.082 33.35 24.564 33.35 23C33.35 21.436 33.212 19.918 33.028 18.4H40.802C41.17 19.872 41.4 21.413 41.4 23C41.4 24.587 41.17 26.128 40.802 27.6H33.028Z" fill="#183C73"/>
</svg>
