<svg width="49" height="40" viewBox="0 0 49 40" fill="none" xmlns="http://www.w3.org/2000/svg">
<path d="M32.2222 31.1111H17.7778C12.8667 31.1111 8.88889 27.1333 8.88889 22.2222C8.88889 17.9333 11.9111 14.3111 16.0444 13.5111C17.8667 10.6667 21.0444 8.88889 24.4444 8.88889C28.7778 8.88889 32.5778 11.7333 33.9111 15.7556C37.4222 16.5556 40 19.6444 40 23.3333C40 27.6222 36.5111 31.1111 32.2222 31.1111ZM17.2 17.8222C14.9778 18.1111 13.3333 19.9778 13.3333 22.2222C13.3333 24.6667 15.3333 26.6667 17.7778 26.6667H32.2222C34.0667 26.6667 35.5556 25.1778 35.5556 23.3333C35.5556 21.4889 34.0667 20 32.2222 20H30.2889L29.9111 18.0889C29.5333 15.3778 27.1778 13.3333 24.4444 13.3333C22.3111 13.3333 20.3556 14.6 19.4222 16.5556L18.8222 17.8222H17.2ZM44.4444 0H4.44444C2 0 0 2 0 4.44444V35.5556C0 38 2 40 4.44444 40H44.4444C46.8889 40 48.8889 38 48.8889 35.5556V4.44444C48.8889 2 46.8889 0 44.4444 0ZM44.4444 35.5778H4.44444V4.42222H44.4444V35.5778Z" fill="#183C73"/>
</svg>
