<svg width="47" height="40" viewBox="0 0 47 40" fill="none" xmlns="http://www.w3.org/2000/svg">
<path d="M23.4329 9.37317C15.6766 9.37317 9.37317 15.6766 9.37317 23.4329C9.37317 27.3228 10.9666 30.8143 13.4974 33.3685L16.8248 30.041C15.1142 28.3538 14.0598 26.034 14.0598 23.4329C14.0598 18.2542 18.2542 14.0598 23.4329 14.0598C28.6116 14.0598 32.8061 18.2542 32.8061 23.4329C32.8061 26.034 31.7516 28.3538 30.041 30.041L33.3685 33.3685C35.8992 30.8143 37.4927 27.3228 37.4927 23.4329C37.4927 15.6766 31.1892 9.37317 23.4329 9.37317ZM23.4329 0C10.4979 0 0 10.4979 0 23.4329C0 29.9004 2.62449 35.7586 6.86585 40L10.1933 36.6725C6.79555 33.2982 4.68658 28.6116 4.68658 23.4329C4.68658 13.0756 13.0756 4.68658 23.4329 4.68658C29.3615 4.68658 34.6339 7.42824 38.0551 11.7165H43.7258C39.6719 4.71002 32.1031 0 23.4329 0ZM23.4329 18.7463C20.8553 18.7463 18.7463 20.8553 18.7463 23.4329C18.7463 24.7217 19.2853 25.8934 20.1289 26.737C20.9725 27.5806 22.1441 28.1195 23.4329 28.1195C24.7217 28.1195 25.8934 27.5806 26.737 26.737C27.5806 25.8934 28.1195 24.7217 28.1195 23.4329C28.1195 20.8553 26.0105 18.7463 23.4329 18.7463ZM42.1793 16.403H46.8658V30.4628H42.1793V16.403ZM42.1793 35.1494H46.8658V39.836H42.1793V35.1494Z" fill="#183C73"/>
</svg>
