<svg width="42" height="40" viewBox="0 0 42 40" fill="none" xmlns="http://www.w3.org/2000/svg">
<path d="M11.0995 24.712L13.6126 22.199C11.5183 20.1047 10.4712 17.3822 10.4712 14.8691C10.4712 12.1466 11.5183 9.42408 13.6126 7.53927L11.0995 5.02618C8.37696 7.74869 6.91099 11.3089 6.91099 14.8691C6.91099 18.4293 8.37696 21.9895 11.0995 24.712Z" fill="#183C73"/>
<path d="M35.8115 0L33.2984 2.51309C36.6492 5.86387 38.3246 10.4712 38.3246 14.8691C38.3246 19.267 36.6492 23.8743 33.2984 27.2251L35.8115 29.7382C40 25.5497 41.8848 20.3141 41.8848 14.8691C41.8848 9.42408 39.7906 4.18848 35.8115 0Z" fill="#183C73"/>
<path d="M8.58639 2.51309L6.0733 0C2.09424 4.18848 0 9.42408 0 14.8691C0 20.3141 2.09424 25.5497 6.0733 29.7382L8.58639 27.2251C5.2356 23.8743 3.56021 19.267 3.56021 14.8691C3.56021 10.4712 5.2356 5.86387 8.58639 2.51309Z" fill="#183C73"/>
<path d="M30.7853 24.712C33.5079 21.9895 34.9738 18.4293 34.9738 14.8691C34.7644 11.3089 33.5079 7.74869 30.7853 5.02618L28.2722 7.53927C30.3665 9.63351 31.4136 12.356 31.4136 14.8691C31.4136 17.5916 30.3665 20.3141 28.2722 22.199L30.7853 24.712Z" fill="#183C73"/>
<path d="M26.178 14.8691C26.178 11.9791 23.8325 9.63351 20.9424 9.63351C18.0524 9.63351 15.7068 11.9791 15.7068 14.8691C15.7068 16.4607 16.4188 17.8429 17.5288 18.8063L10.4712 40H14.6597L16.0628 35.8115H25.8429L27.2251 40H31.4136L24.356 18.8063C25.466 17.8429 26.178 16.4607 26.178 14.8691ZM17.445 31.623L20.9424 21.1518L24.4398 31.623H17.445Z" fill="#183C73"/>
</svg>
