<svg width="31" height="40" viewBox="0 0 31 40" fill="none" xmlns="http://www.w3.org/2000/svg">
<path d="M0 27.2727V30.9091C5.01818 30.9091 9.09091 34.9818 9.09091 40H12.7273C12.7273 32.9636 7.03636 27.2727 0 27.2727ZM0 34.5455V40H5.45455C5.45455 36.9818 3.01818 34.5455 0 34.5455ZM0 20V23.6364C9.03636 23.6364 16.3636 30.9636 16.3636 40H20C20 28.9455 11.0545 20 0 20ZM27.2727 0.0181818L9.09091 0C7.09091 0 5.45455 1.63636 5.45455 3.63636V17.0364C6.70909 17.3273 7.92727 17.7091 9.09091 18.2V7.27273H27.2727V30.9091H21.7636C22.7091 33.1818 23.2909 35.6182 23.4909 38.1818H27.2727C29.2727 38.1818 30.9091 36.5455 30.9091 34.5455V3.63636C30.9091 1.63636 29.2727 0.0181818 27.2727 0.0181818Z" fill="#183C73"/>
</svg>
